# xmcd
#
# Track frame offsets: 
#        150
#        11330
#        22046
#        35503
#        47260
#        61227
#        69020
#        80581
#        91626
#        105194
#        117796
#        127856
#        140215
#        150099
#        163359
#        176220
#        187733
#        201006
#        213695
#        226485
#        238841
#        250883
#
# Disc length: 3492 seconds
#
# Revision: 0
# Processed by: cddbd v1.5.2PL0 Copyright (c) Steve Scherf et al.
# Submitted via: ExactAudioCopy v1.3
#
DISCID=170da216
DTITLE=Professor Longhair - Singles 1949-1957
DYEAR=2012
DGENRE=Blues
TTITLE0=Mardi Gras in New Orleans
TTITLE1=Cry Pretty Baby
TTITLE2=Mardi Gras in New Orleans
TTITLE3=Gone So Long
TTITLE4=Hey Little Girl
TTITLE5=Baby Let Me Hold Your Hand
TTITLE6=Bye Bye Baby
TTITLE7=Tipitina
TTITLE8=Walk Your Blues Away
TTITLE9=Longhair Stomp
TTITLE10=Who's Been Foolin'
TTITLE11=Between the Night and Day
TTITLE12=Baby Let Me Hold Your Hand
TTITLE13=Mardi Gras in New Orleans
TTITLE14=Boyd's Bounce
TTITLE15=Bald Head
TTITLE16=Hadacol Bounce
TTITLE17=Byrd's Blues
TTITLE18=Curley Haired Baby
TTITLE19=Boogie Woogie
TTITLE20=Between the Night and Day
TTITLE21=Oh Well
EXTD=
EXTT0=
EXTT1=
EXTT2=
EXTT3=
EXTT4=
EXTT5=
EXTT6=
EXTT7=
EXTT8=
EXTT9=
EXTT10=
EXTT11=
EXTT12=
EXTT13=
EXTT14=
EXTT15=
EXTT16=
EXTT17=
EXTT18=
EXTT19=
EXTT20=
EXTT21=
PLAYORDER=
